<mxfile host="app.diagrams.net" modified="2024-02-24T17:22:39.746Z" agent="Mozilla/5.0 (Windows NT 10.0; Win64; x64) AppleWebKit/537.36 (KHTML, like Gecko) Chrome/121.0.0.0 Safari/537.36 Edg/121.0.0.0" etag="yhhkoKykCZGAS_PIKw7u" version="23.1.6" type="github">
  <diagram id="R2lEEEUBdFMjLlhIrx00" name="Page-1">
    <mxGraphModel dx="954" dy="550" grid="0" gridSize="10" guides="1" tooltips="1" connect="1" arrows="1" fold="1" page="1" pageScale="1" pageWidth="827" pageHeight="1169" background="#E5CCFF" math="0" shadow="0" extFonts="Permanent Marker^https://fonts.googleapis.com/css?family=Permanent+Marker">
      <root>
        <mxCell id="0" />
        <mxCell id="1" parent="0" />
        <mxCell id="-MWiHtM6rtWdXmI_qpV0-16" value="Benutzer" style="shape=table;startSize=30;container=1;collapsible=1;childLayout=tableLayout;fixedRows=1;rowLines=0;fontStyle=1;align=center;resizeLast=1;html=1;" vertex="1" parent="1">
          <mxGeometry x="40" y="40" width="324.99999999999994" height="330" as="geometry" />
        </mxCell>
        <mxCell id="-MWiHtM6rtWdXmI_qpV0-17" value="" style="shape=tableRow;horizontal=0;startSize=0;swimlaneHead=0;swimlaneBody=0;fillColor=none;collapsible=0;dropTarget=0;points=[[0,0.5],[1,0.5]];portConstraint=eastwest;top=0;left=0;right=0;bottom=1;" vertex="1" parent="-MWiHtM6rtWdXmI_qpV0-16">
          <mxGeometry y="30" width="324.99999999999994" height="30" as="geometry" />
        </mxCell>
        <mxCell id="-MWiHtM6rtWdXmI_qpV0-18" value="PK" style="shape=partialRectangle;connectable=0;fillColor=none;top=0;left=0;bottom=0;right=0;fontStyle=1;overflow=hidden;whiteSpace=wrap;html=1;" vertex="1" parent="-MWiHtM6rtWdXmI_qpV0-17">
          <mxGeometry width="30" height="30" as="geometry">
            <mxRectangle width="30" height="30" as="alternateBounds" />
          </mxGeometry>
        </mxCell>
        <mxCell id="-MWiHtM6rtWdXmI_qpV0-19" value="BenutzerID" style="shape=partialRectangle;connectable=0;fillColor=none;top=0;left=0;bottom=0;right=0;align=left;spacingLeft=6;fontStyle=5;overflow=hidden;whiteSpace=wrap;html=1;" vertex="1" parent="-MWiHtM6rtWdXmI_qpV0-17">
          <mxGeometry x="30" width="294.99999999999994" height="30" as="geometry">
            <mxRectangle width="294.99999999999994" height="30" as="alternateBounds" />
          </mxGeometry>
        </mxCell>
        <mxCell id="-MWiHtM6rtWdXmI_qpV0-20" value="" style="shape=tableRow;horizontal=0;startSize=0;swimlaneHead=0;swimlaneBody=0;fillColor=none;collapsible=0;dropTarget=0;points=[[0,0.5],[1,0.5]];portConstraint=eastwest;top=0;left=0;right=0;bottom=0;" vertex="1" parent="-MWiHtM6rtWdXmI_qpV0-16">
          <mxGeometry y="60" width="324.99999999999994" height="30" as="geometry" />
        </mxCell>
        <mxCell id="-MWiHtM6rtWdXmI_qpV0-21" value="" style="shape=partialRectangle;connectable=0;fillColor=none;top=0;left=0;bottom=0;right=0;editable=1;overflow=hidden;whiteSpace=wrap;html=1;" vertex="1" parent="-MWiHtM6rtWdXmI_qpV0-20">
          <mxGeometry width="30" height="30" as="geometry">
            <mxRectangle width="30" height="30" as="alternateBounds" />
          </mxGeometry>
        </mxCell>
        <mxCell id="-MWiHtM6rtWdXmI_qpV0-22" value="Anrede" style="shape=partialRectangle;connectable=0;fillColor=none;top=0;left=0;bottom=0;right=0;align=left;spacingLeft=6;overflow=hidden;whiteSpace=wrap;html=1;" vertex="1" parent="-MWiHtM6rtWdXmI_qpV0-20">
          <mxGeometry x="30" width="294.99999999999994" height="30" as="geometry">
            <mxRectangle width="294.99999999999994" height="30" as="alternateBounds" />
          </mxGeometry>
        </mxCell>
        <mxCell id="-MWiHtM6rtWdXmI_qpV0-26" value="" style="shape=tableRow;horizontal=0;startSize=0;swimlaneHead=0;swimlaneBody=0;fillColor=none;collapsible=0;dropTarget=0;points=[[0,0.5],[1,0.5]];portConstraint=eastwest;top=0;left=0;right=0;bottom=0;" vertex="1" parent="-MWiHtM6rtWdXmI_qpV0-16">
          <mxGeometry y="90" width="324.99999999999994" height="30" as="geometry" />
        </mxCell>
        <mxCell id="-MWiHtM6rtWdXmI_qpV0-27" value="" style="shape=partialRectangle;connectable=0;fillColor=none;top=0;left=0;bottom=0;right=0;editable=1;overflow=hidden;whiteSpace=wrap;html=1;" vertex="1" parent="-MWiHtM6rtWdXmI_qpV0-26">
          <mxGeometry width="30" height="30" as="geometry">
            <mxRectangle width="30" height="30" as="alternateBounds" />
          </mxGeometry>
        </mxCell>
        <mxCell id="-MWiHtM6rtWdXmI_qpV0-28" value="Vorname" style="shape=partialRectangle;connectable=0;fillColor=none;top=0;left=0;bottom=0;right=0;align=left;spacingLeft=6;overflow=hidden;whiteSpace=wrap;html=1;" vertex="1" parent="-MWiHtM6rtWdXmI_qpV0-26">
          <mxGeometry x="30" width="294.99999999999994" height="30" as="geometry">
            <mxRectangle width="294.99999999999994" height="30" as="alternateBounds" />
          </mxGeometry>
        </mxCell>
        <mxCell id="-MWiHtM6rtWdXmI_qpV0-29" value="" style="shape=tableRow;horizontal=0;startSize=0;swimlaneHead=0;swimlaneBody=0;fillColor=none;collapsible=0;dropTarget=0;points=[[0,0.5],[1,0.5]];portConstraint=eastwest;top=0;left=0;right=0;bottom=0;" vertex="1" parent="-MWiHtM6rtWdXmI_qpV0-16">
          <mxGeometry y="120" width="324.99999999999994" height="30" as="geometry" />
        </mxCell>
        <mxCell id="-MWiHtM6rtWdXmI_qpV0-30" value="" style="shape=partialRectangle;connectable=0;fillColor=none;top=0;left=0;bottom=0;right=0;editable=1;overflow=hidden;whiteSpace=wrap;html=1;" vertex="1" parent="-MWiHtM6rtWdXmI_qpV0-29">
          <mxGeometry width="30" height="30" as="geometry">
            <mxRectangle width="30" height="30" as="alternateBounds" />
          </mxGeometry>
        </mxCell>
        <mxCell id="-MWiHtM6rtWdXmI_qpV0-31" value="Nachname" style="shape=partialRectangle;connectable=0;fillColor=none;top=0;left=0;bottom=0;right=0;align=left;spacingLeft=6;overflow=hidden;whiteSpace=wrap;html=1;" vertex="1" parent="-MWiHtM6rtWdXmI_qpV0-29">
          <mxGeometry x="30" width="294.99999999999994" height="30" as="geometry">
            <mxRectangle width="294.99999999999994" height="30" as="alternateBounds" />
          </mxGeometry>
        </mxCell>
        <mxCell id="-MWiHtM6rtWdXmI_qpV0-23" value="" style="shape=tableRow;horizontal=0;startSize=0;swimlaneHead=0;swimlaneBody=0;fillColor=none;collapsible=0;dropTarget=0;points=[[0,0.5],[1,0.5]];portConstraint=eastwest;top=0;left=0;right=0;bottom=0;" vertex="1" parent="-MWiHtM6rtWdXmI_qpV0-16">
          <mxGeometry y="150" width="324.99999999999994" height="30" as="geometry" />
        </mxCell>
        <mxCell id="-MWiHtM6rtWdXmI_qpV0-24" value="" style="shape=partialRectangle;connectable=0;fillColor=none;top=0;left=0;bottom=0;right=0;editable=1;overflow=hidden;whiteSpace=wrap;html=1;" vertex="1" parent="-MWiHtM6rtWdXmI_qpV0-23">
          <mxGeometry width="30" height="30" as="geometry">
            <mxRectangle width="30" height="30" as="alternateBounds" />
          </mxGeometry>
        </mxCell>
        <mxCell id="-MWiHtM6rtWdXmI_qpV0-25" value="E-Mail" style="shape=partialRectangle;connectable=0;fillColor=none;top=0;left=0;bottom=0;right=0;align=left;spacingLeft=6;overflow=hidden;whiteSpace=wrap;html=1;" vertex="1" parent="-MWiHtM6rtWdXmI_qpV0-23">
          <mxGeometry x="30" width="294.99999999999994" height="30" as="geometry">
            <mxRectangle width="294.99999999999994" height="30" as="alternateBounds" />
          </mxGeometry>
        </mxCell>
        <mxCell id="-MWiHtM6rtWdXmI_qpV0-32" value="" style="shape=tableRow;horizontal=0;startSize=0;swimlaneHead=0;swimlaneBody=0;fillColor=none;collapsible=0;dropTarget=0;points=[[0,0.5],[1,0.5]];portConstraint=eastwest;top=0;left=0;right=0;bottom=0;" vertex="1" parent="-MWiHtM6rtWdXmI_qpV0-16">
          <mxGeometry y="180" width="324.99999999999994" height="30" as="geometry" />
        </mxCell>
        <mxCell id="-MWiHtM6rtWdXmI_qpV0-33" value="" style="shape=partialRectangle;connectable=0;fillColor=none;top=0;left=0;bottom=0;right=0;editable=1;overflow=hidden;whiteSpace=wrap;html=1;" vertex="1" parent="-MWiHtM6rtWdXmI_qpV0-32">
          <mxGeometry width="30" height="30" as="geometry">
            <mxRectangle width="30" height="30" as="alternateBounds" />
          </mxGeometry>
        </mxCell>
        <mxCell id="-MWiHtM6rtWdXmI_qpV0-34" value="Passwort (verschlÃ¼sselt)" style="shape=partialRectangle;connectable=0;fillColor=none;top=0;left=0;bottom=0;right=0;align=left;spacingLeft=6;overflow=hidden;whiteSpace=wrap;html=1;" vertex="1" parent="-MWiHtM6rtWdXmI_qpV0-32">
          <mxGeometry x="30" width="294.99999999999994" height="30" as="geometry">
            <mxRectangle width="294.99999999999994" height="30" as="alternateBounds" />
          </mxGeometry>
        </mxCell>
        <mxCell id="-MWiHtM6rtWdXmI_qpV0-35" value="" style="shape=tableRow;horizontal=0;startSize=0;swimlaneHead=0;swimlaneBody=0;fillColor=none;collapsible=0;dropTarget=0;points=[[0,0.5],[1,0.5]];portConstraint=eastwest;top=0;left=0;right=0;bottom=0;" vertex="1" parent="-MWiHtM6rtWdXmI_qpV0-16">
          <mxGeometry y="210" width="324.99999999999994" height="30" as="geometry" />
        </mxCell>
        <mxCell id="-MWiHtM6rtWdXmI_qpV0-36" value="" style="shape=partialRectangle;connectable=0;fillColor=none;top=0;left=0;bottom=0;right=0;editable=1;overflow=hidden;whiteSpace=wrap;html=1;" vertex="1" parent="-MWiHtM6rtWdXmI_qpV0-35">
          <mxGeometry width="30" height="30" as="geometry">
            <mxRectangle width="30" height="30" as="alternateBounds" />
          </mxGeometry>
        </mxCell>
        <mxCell id="-MWiHtM6rtWdXmI_qpV0-37" value="Kontotyp (enum: Kunde, Verlag, Angestellter)" style="shape=partialRectangle;connectable=0;fillColor=none;top=0;left=0;bottom=0;right=0;align=left;spacingLeft=6;overflow=hidden;whiteSpace=wrap;html=1;" vertex="1" parent="-MWiHtM6rtWdXmI_qpV0-35">
          <mxGeometry x="30" width="294.99999999999994" height="30" as="geometry">
            <mxRectangle width="294.99999999999994" height="30" as="alternateBounds" />
          </mxGeometry>
        </mxCell>
        <mxCell id="-MWiHtM6rtWdXmI_qpV0-38" value="" style="shape=tableRow;horizontal=0;startSize=0;swimlaneHead=0;swimlaneBody=0;fillColor=none;collapsible=0;dropTarget=0;points=[[0,0.5],[1,0.5]];portConstraint=eastwest;top=0;left=0;right=0;bottom=0;" vertex="1" parent="-MWiHtM6rtWdXmI_qpV0-16">
          <mxGeometry y="240" width="324.99999999999994" height="30" as="geometry" />
        </mxCell>
        <mxCell id="-MWiHtM6rtWdXmI_qpV0-39" value="" style="shape=partialRectangle;connectable=0;fillColor=none;top=0;left=0;bottom=0;right=0;editable=1;overflow=hidden;whiteSpace=wrap;html=1;" vertex="1" parent="-MWiHtM6rtWdXmI_qpV0-38">
          <mxGeometry width="30" height="30" as="geometry">
            <mxRectangle width="30" height="30" as="alternateBounds" />
          </mxGeometry>
        </mxCell>
        <mxCell id="-MWiHtM6rtWdXmI_qpV0-40" value="Telefon (optional)" style="shape=partialRectangle;connectable=0;fillColor=none;top=0;left=0;bottom=0;right=0;align=left;spacingLeft=6;overflow=hidden;whiteSpace=wrap;html=1;" vertex="1" parent="-MWiHtM6rtWdXmI_qpV0-38">
          <mxGeometry x="30" width="294.99999999999994" height="30" as="geometry">
            <mxRectangle width="294.99999999999994" height="30" as="alternateBounds" />
          </mxGeometry>
        </mxCell>
        <mxCell id="-MWiHtM6rtWdXmI_qpV0-41" value="" style="shape=tableRow;horizontal=0;startSize=0;swimlaneHead=0;swimlaneBody=0;fillColor=none;collapsible=0;dropTarget=0;points=[[0,0.5],[1,0.5]];portConstraint=eastwest;top=0;left=0;right=0;bottom=0;" vertex="1" parent="-MWiHtM6rtWdXmI_qpV0-16">
          <mxGeometry y="270" width="324.99999999999994" height="30" as="geometry" />
        </mxCell>
        <mxCell id="-MWiHtM6rtWdXmI_qpV0-42" value="" style="shape=partialRectangle;connectable=0;fillColor=none;top=0;left=0;bottom=0;right=0;editable=1;overflow=hidden;whiteSpace=wrap;html=1;" vertex="1" parent="-MWiHtM6rtWdXmI_qpV0-41">
          <mxGeometry width="30" height="30" as="geometry">
            <mxRectangle width="30" height="30" as="alternateBounds" />
          </mxGeometry>
        </mxCell>
        <mxCell id="-MWiHtM6rtWdXmI_qpV0-43" value="Erstellungsdatum" style="shape=partialRectangle;connectable=0;fillColor=none;top=0;left=0;bottom=0;right=0;align=left;spacingLeft=6;overflow=hidden;whiteSpace=wrap;html=1;" vertex="1" parent="-MWiHtM6rtWdXmI_qpV0-41">
          <mxGeometry x="30" width="294.99999999999994" height="30" as="geometry">
            <mxRectangle width="294.99999999999994" height="30" as="alternateBounds" />
          </mxGeometry>
        </mxCell>
        <mxCell id="-MWiHtM6rtWdXmI_qpV0-44" value="" style="shape=tableRow;horizontal=0;startSize=0;swimlaneHead=0;swimlaneBody=0;fillColor=none;collapsible=0;dropTarget=0;points=[[0,0.5],[1,0.5]];portConstraint=eastwest;top=0;left=0;right=0;bottom=0;" vertex="1" parent="-MWiHtM6rtWdXmI_qpV0-16">
          <mxGeometry y="300" width="324.99999999999994" height="30" as="geometry" />
        </mxCell>
        <mxCell id="-MWiHtM6rtWdXmI_qpV0-45" value="" style="shape=partialRectangle;connectable=0;fillColor=none;top=0;left=0;bottom=0;right=0;editable=1;overflow=hidden;whiteSpace=wrap;html=1;" vertex="1" parent="-MWiHtM6rtWdXmI_qpV0-44">
          <mxGeometry width="30" height="30" as="geometry">
            <mxRectangle width="30" height="30" as="alternateBounds" />
          </mxGeometry>
        </mxCell>
        <mxCell id="-MWiHtM6rtWdXmI_qpV0-46" value="Aktivierungsstatus" style="shape=partialRectangle;connectable=0;fillColor=none;top=0;left=0;bottom=0;right=0;align=left;spacingLeft=6;overflow=hidden;whiteSpace=wrap;html=1;" vertex="1" parent="-MWiHtM6rtWdXmI_qpV0-44">
          <mxGeometry x="30" width="294.99999999999994" height="30" as="geometry">
            <mxRectangle width="294.99999999999994" height="30" as="alternateBounds" />
          </mxGeometry>
        </mxCell>
        <mxCell id="-MWiHtM6rtWdXmI_qpV0-48" value="Adresse" style="shape=table;startSize=33;container=1;collapsible=1;childLayout=tableLayout;fixedRows=1;rowLines=0;fontStyle=0;align=center;resizeLast=1;html=1;" vertex="1" parent="1">
          <mxGeometry x="511" y="83.5" width="280.6667480468751" height="243" as="geometry" />
        </mxCell>
        <mxCell id="-MWiHtM6rtWdXmI_qpV0-49" value="" style="shape=tableRow;horizontal=0;startSize=0;swimlaneHead=0;swimlaneBody=0;fillColor=none;collapsible=0;dropTarget=0;points=[[0,0.5],[1,0.5]];portConstraint=eastwest;top=0;left=0;right=0;bottom=1;fontStyle=0" vertex="1" parent="-MWiHtM6rtWdXmI_qpV0-48">
          <mxGeometry y="33" width="280.6667480468751" height="30" as="geometry" />
        </mxCell>
        <mxCell id="-MWiHtM6rtWdXmI_qpV0-50" value="PK" style="shape=partialRectangle;connectable=0;fillColor=none;top=0;left=0;bottom=0;right=0;fontStyle=0;overflow=hidden;whiteSpace=wrap;html=1;" vertex="1" parent="-MWiHtM6rtWdXmI_qpV0-49">
          <mxGeometry width="30" height="30" as="geometry">
            <mxRectangle width="30" height="30" as="alternateBounds" />
          </mxGeometry>
        </mxCell>
        <mxCell id="-MWiHtM6rtWdXmI_qpV0-51" value="AdresseID (PrimÃ¤rschlÃ¼ssel)" style="shape=partialRectangle;connectable=0;fillColor=none;top=0;left=0;bottom=0;right=0;align=left;spacingLeft=6;fontStyle=4;overflow=hidden;whiteSpace=wrap;html=1;" vertex="1" parent="-MWiHtM6rtWdXmI_qpV0-49">
          <mxGeometry x="30" width="250.6667480468751" height="30" as="geometry">
            <mxRectangle width="250.6667480468751" height="30" as="alternateBounds" />
          </mxGeometry>
        </mxCell>
        <mxCell id="-MWiHtM6rtWdXmI_qpV0-52" value="" style="shape=tableRow;horizontal=0;startSize=0;swimlaneHead=0;swimlaneBody=0;fillColor=none;collapsible=0;dropTarget=0;points=[[0,0.5],[1,0.5]];portConstraint=eastwest;top=0;left=0;right=0;bottom=0;fontStyle=0" vertex="1" parent="-MWiHtM6rtWdXmI_qpV0-48">
          <mxGeometry y="63" width="280.6667480468751" height="30" as="geometry" />
        </mxCell>
        <mxCell id="-MWiHtM6rtWdXmI_qpV0-53" value="" style="shape=partialRectangle;connectable=0;fillColor=none;top=0;left=0;bottom=0;right=0;editable=1;overflow=hidden;whiteSpace=wrap;html=1;fontStyle=0" vertex="1" parent="-MWiHtM6rtWdXmI_qpV0-52">
          <mxGeometry width="30" height="30" as="geometry">
            <mxRectangle width="30" height="30" as="alternateBounds" />
          </mxGeometry>
        </mxCell>
        <mxCell id="-MWiHtM6rtWdXmI_qpV0-54" value="StraÃe" style="shape=partialRectangle;connectable=0;fillColor=none;top=0;left=0;bottom=0;right=0;align=left;spacingLeft=6;overflow=hidden;whiteSpace=wrap;html=1;fontStyle=0" vertex="1" parent="-MWiHtM6rtWdXmI_qpV0-52">
          <mxGeometry x="30" width="250.6667480468751" height="30" as="geometry">
            <mxRectangle width="250.6667480468751" height="30" as="alternateBounds" />
          </mxGeometry>
        </mxCell>
        <mxCell id="-MWiHtM6rtWdXmI_qpV0-55" value="" style="shape=tableRow;horizontal=0;startSize=0;swimlaneHead=0;swimlaneBody=0;fillColor=none;collapsible=0;dropTarget=0;points=[[0,0.5],[1,0.5]];portConstraint=eastwest;top=0;left=0;right=0;bottom=0;fontStyle=0" vertex="1" parent="-MWiHtM6rtWdXmI_qpV0-48">
          <mxGeometry y="93" width="280.6667480468751" height="30" as="geometry" />
        </mxCell>
        <mxCell id="-MWiHtM6rtWdXmI_qpV0-56" value="" style="shape=partialRectangle;connectable=0;fillColor=none;top=0;left=0;bottom=0;right=0;editable=1;overflow=hidden;whiteSpace=wrap;html=1;fontStyle=0" vertex="1" parent="-MWiHtM6rtWdXmI_qpV0-55">
          <mxGeometry width="30" height="30" as="geometry">
            <mxRectangle width="30" height="30" as="alternateBounds" />
          </mxGeometry>
        </mxCell>
        <mxCell id="-MWiHtM6rtWdXmI_qpV0-57" value="Hausnummer" style="shape=partialRectangle;connectable=0;fillColor=none;top=0;left=0;bottom=0;right=0;align=left;spacingLeft=6;overflow=hidden;whiteSpace=wrap;html=1;fontStyle=0" vertex="1" parent="-MWiHtM6rtWdXmI_qpV0-55">
          <mxGeometry x="30" width="250.6667480468751" height="30" as="geometry">
            <mxRectangle width="250.6667480468751" height="30" as="alternateBounds" />
          </mxGeometry>
        </mxCell>
        <mxCell id="-MWiHtM6rtWdXmI_qpV0-58" value="" style="shape=tableRow;horizontal=0;startSize=0;swimlaneHead=0;swimlaneBody=0;fillColor=none;collapsible=0;dropTarget=0;points=[[0,0.5],[1,0.5]];portConstraint=eastwest;top=0;left=0;right=0;bottom=0;fontStyle=0" vertex="1" parent="-MWiHtM6rtWdXmI_qpV0-48">
          <mxGeometry y="123" width="280.6667480468751" height="30" as="geometry" />
        </mxCell>
        <mxCell id="-MWiHtM6rtWdXmI_qpV0-59" value="" style="shape=partialRectangle;connectable=0;fillColor=none;top=0;left=0;bottom=0;right=0;editable=1;overflow=hidden;whiteSpace=wrap;html=1;fontStyle=0" vertex="1" parent="-MWiHtM6rtWdXmI_qpV0-58">
          <mxGeometry width="30" height="30" as="geometry">
            <mxRectangle width="30" height="30" as="alternateBounds" />
          </mxGeometry>
        </mxCell>
        <mxCell id="-MWiHtM6rtWdXmI_qpV0-60" value="PLZ" style="shape=partialRectangle;connectable=0;fillColor=none;top=0;left=0;bottom=0;right=0;align=left;spacingLeft=6;overflow=hidden;whiteSpace=wrap;html=1;fontStyle=0" vertex="1" parent="-MWiHtM6rtWdXmI_qpV0-58">
          <mxGeometry x="30" width="250.6667480468751" height="30" as="geometry">
            <mxRectangle width="250.6667480468751" height="30" as="alternateBounds" />
          </mxGeometry>
        </mxCell>
        <mxCell id="-MWiHtM6rtWdXmI_qpV0-85" value="" style="shape=tableRow;horizontal=0;startSize=0;swimlaneHead=0;swimlaneBody=0;fillColor=none;collapsible=0;dropTarget=0;points=[[0,0.5],[1,0.5]];portConstraint=eastwest;top=0;left=0;right=0;bottom=0;fontStyle=0" vertex="1" parent="-MWiHtM6rtWdXmI_qpV0-48">
          <mxGeometry y="153" width="280.6667480468751" height="30" as="geometry" />
        </mxCell>
        <mxCell id="-MWiHtM6rtWdXmI_qpV0-86" value="" style="shape=partialRectangle;connectable=0;fillColor=none;top=0;left=0;bottom=0;right=0;editable=1;overflow=hidden;whiteSpace=wrap;html=1;fontStyle=0" vertex="1" parent="-MWiHtM6rtWdXmI_qpV0-85">
          <mxGeometry width="30" height="30" as="geometry">
            <mxRectangle width="30" height="30" as="alternateBounds" />
          </mxGeometry>
        </mxCell>
        <mxCell id="-MWiHtM6rtWdXmI_qpV0-87" value="Ort" style="shape=partialRectangle;connectable=0;fillColor=none;top=0;left=0;bottom=0;right=0;align=left;spacingLeft=6;overflow=hidden;whiteSpace=wrap;html=1;fontStyle=0" vertex="1" parent="-MWiHtM6rtWdXmI_qpV0-85">
          <mxGeometry x="30" width="250.6667480468751" height="30" as="geometry">
            <mxRectangle width="250.6667480468751" height="30" as="alternateBounds" />
          </mxGeometry>
        </mxCell>
        <mxCell id="-MWiHtM6rtWdXmI_qpV0-82" value="" style="shape=tableRow;horizontal=0;startSize=0;swimlaneHead=0;swimlaneBody=0;fillColor=none;collapsible=0;dropTarget=0;points=[[0,0.5],[1,0.5]];portConstraint=eastwest;top=0;left=0;right=0;bottom=1;fontStyle=0" vertex="1" parent="-MWiHtM6rtWdXmI_qpV0-48">
          <mxGeometry y="183" width="280.6667480468751" height="30" as="geometry" />
        </mxCell>
        <mxCell id="-MWiHtM6rtWdXmI_qpV0-83" value="" style="shape=partialRectangle;connectable=0;fillColor=none;top=0;left=0;bottom=0;right=0;fontStyle=0;overflow=hidden;whiteSpace=wrap;html=1;" vertex="1" parent="-MWiHtM6rtWdXmI_qpV0-82">
          <mxGeometry width="30" height="30" as="geometry">
            <mxRectangle width="30" height="30" as="alternateBounds" />
          </mxGeometry>
        </mxCell>
        <mxCell id="-MWiHtM6rtWdXmI_qpV0-84" value="Land" style="shape=partialRectangle;connectable=0;fillColor=none;top=0;left=0;bottom=0;right=0;align=left;spacingLeft=6;fontStyle=4;overflow=hidden;whiteSpace=wrap;html=1;" vertex="1" parent="-MWiHtM6rtWdXmI_qpV0-82">
          <mxGeometry x="30" width="250.6667480468751" height="30" as="geometry">
            <mxRectangle width="250.6667480468751" height="30" as="alternateBounds" />
          </mxGeometry>
        </mxCell>
        <mxCell id="-MWiHtM6rtWdXmI_qpV0-107" value="" style="shape=tableRow;horizontal=0;startSize=0;swimlaneHead=0;swimlaneBody=0;fillColor=none;collapsible=0;dropTarget=0;points=[[0,0.5],[1,0.5]];portConstraint=eastwest;top=0;left=0;right=0;bottom=0;fontStyle=0" vertex="1" parent="-MWiHtM6rtWdXmI_qpV0-48">
          <mxGeometry y="213" width="280.6667480468751" height="30" as="geometry" />
        </mxCell>
        <mxCell id="-MWiHtM6rtWdXmI_qpV0-108" value="FK" style="shape=partialRectangle;connectable=0;fillColor=none;top=0;left=0;bottom=0;right=0;editable=1;overflow=hidden;whiteSpace=wrap;html=1;fontStyle=0" vertex="1" parent="-MWiHtM6rtWdXmI_qpV0-107">
          <mxGeometry width="30" height="30" as="geometry">
            <mxRectangle width="30" height="30" as="alternateBounds" />
          </mxGeometry>
        </mxCell>
        <mxCell id="-MWiHtM6rtWdXmI_qpV0-109" value="BenutzerID (FremdschlÃ¼ssel)" style="shape=partialRectangle;connectable=0;fillColor=none;top=0;left=0;bottom=0;right=0;align=left;spacingLeft=6;overflow=hidden;whiteSpace=wrap;html=1;fontStyle=0" vertex="1" parent="-MWiHtM6rtWdXmI_qpV0-107">
          <mxGeometry x="30" width="250.6667480468751" height="30" as="geometry">
            <mxRectangle width="250.6667480468751" height="30" as="alternateBounds" />
          </mxGeometry>
        </mxCell>
        <mxCell id="-MWiHtM6rtWdXmI_qpV0-110" value="" style="endArrow=none;html=1;rounded=0;" edge="1" parent="1" source="-MWiHtM6rtWdXmI_qpV0-16" target="-MWiHtM6rtWdXmI_qpV0-48">
          <mxGeometry relative="1" as="geometry">
            <mxPoint x="330" y="377" as="sourcePoint" />
            <mxPoint x="405" y="60" as="targetPoint" />
          </mxGeometry>
        </mxCell>
        <mxCell id="-MWiHtM6rtWdXmI_qpV0-111" value="N" style="resizable=0;html=1;whiteSpace=wrap;align=right;verticalAlign=bottom;" connectable="0" vertex="1" parent="-MWiHtM6rtWdXmI_qpV0-110">
          <mxGeometry x="1" relative="1" as="geometry" />
        </mxCell>
      </root>
    </mxGraphModel>
  </diagram>
</mxfile>
